ModPlug Tracker  IT
|F#501v64TC0|...........|...........|...........
|...........|...........|...........|...........
|...........|...........|...........|...........
|...........|...........|...........|...........
|...........|...........|...........|...........
|...........|...........|...........|...........
|...........|...........|...........|...........
|...........|...........|...........|...........
|...........|...........|...........|...........
|...........|...........|...........|...........
|...........|...........|...........|...........
|...........|...........|...........|...........
|...........|...........|...........|...........
|C#601v64...|...........|...........|...........
|...........|...........|...........|...........
|...........|...........|...........|...........
|...........|...........|...........|...........
|...........|...........|...........|...........
|...........|...........|...........|...........
|...........|...........|...........|...........
|...........|...........|...........|...........
|...........|...........|...........|...........
|...........|...........|...........|...........
|...........|...........|...........|...........
|...........|...........|...........|...........
|...........|...........|...........|...........
|G#501v64...|C#501v64...|F-301v64...|...........
|...........|...........|...........|...........
|...........|...........|...........|...........
|...........|...........|...........|...........
|...........|...........|...........|...........
|...........|...........|...........|...........
|...........|...........|...........|...........
|...........|...........|...........|...........
|...........|...........|...........|...........
|...........|...........|...........|...........
|...........|...........|...........|...........
|...........|...........|...........|...........
|...........|...........|...........|...........
|...........|...........|C#401v64...|...........
|...........|...........|...........|...........
|...........|...........|...........|...........
|...........|...........|...........|...........
|...........|...........|...........|...........
|...........|...........|...........|...........
|...........|...........|...........|...........
|...........|...........|...........|...........
|...........|...........|...........|...........
|...........|...........|...........|...........
|...........|...........|...........|...........
|...........|...........|...........|...........
|...........|...........|F-401v64...|...........
|...........|...........|...........|...........
|...........|...........|...........|...........
|...........|...........|...........|...........
|...........|...........|...........|...........
|...........|...........|...........|...........
|...........|...........|...........|...........
|...........|...........|...........|...........
|...........|...........|...........|...........
|...........|...........|...........|...........
|...........|...........|...........|...........
|...........|...........|...........|...........
|...........|...........|...........|...........
|A-501v64...|...........|...........|...........
|...........|...........|...........|...........
|...........|...........|...........|...........
|...........|...........|...........|...........
|...........|...........|...........|...........
|...........|...........|...........|...........
|...........|...........|...........|...........
|...........|...........|...........|...........
|...........|...........|...........|...........
|...........|...........|...........|...........
|...........|...........|...........|...........
|...........|...........|...........|...........
|...........|===........|...........|...........
|A-501v64...|...........|F#301v64...|...........
|...........|...........|...........|...........
|...........|...........|...........|...........
|...........|...........|...........|...........
|...........|...........|...........|...........
|...........|...........|...........|...........
|...........|...........|...........|...........
|...........|...........|...........|...........
|...........|...........|...........|...........
|...........|...........|...........|...........
|...........|...........|...........|...........
|...........|...........|...........|...........
|...........|...........|...........|...........
|...........|...........|C#401v64...|...........
|...........|...........|...........|...........
|...........|...........|...........|...........
|...........|...........|...........|...........
|...........|...........|...........|...........
|...........|...........|...........|...........
|...........|...........|...........|...........
|...........|...........|...........|...........
|...........|...........|...........|...........
|...........|...........|...........|...........
|...........|...........|...........|...........
|...........|...........|...........|...........
|...........|...........|...........|...........
|F#501v64...|...........|F#401v64...|...........
|...........|...........|...........|...........
|...........|...........|...........|...........
|...........|...........|...........|...........
|...........|...........|...........|...........
|...........|...........|...........|...........
|...........|...........|...........|...........
|...........|...........|...........|...........
|...........|...........|...........|...........
|...........|...........|...........|...........
|...........|...........|...........|...........
|...........|...........|...........|...........
|C#601v64...|...........|...........|...........
|...........|...........|...........|...........
|...........|...........|...........|...........
|...........|...........|...........|...........
|...........|...........|...........|...........
|...........|...........|...........|...........
|...........|...........|...........|...........
|...........|...........|...........|...........
|...........|...........|...........|...........
|...........|...........|...........|...........
|...........|...........|...........|...........
|...........|...........|...........|...........
|...........|...........|...........|...........
ModPlug Tracker  IT
|G#501v64...|C#501v64...|F-301v64...|...........
|...........|...........|...........|...........
|...........|...........|...........|...........
|...........|...........|...........|...........
|...........|...........|...........|...........
|...........|...........|...........|...........
|...........|...........|...........|...........
|...........|...........|...........|...........
|...........|...........|...........|...........
|...........|...........|...........|...........
|...........|...........|...........|...........
|...........|...........|...........|...........
|...........|...........|...........|...........
|...........|...........|C#401v64...|...........
|...........|...........|...........|...........
|...........|...........|...........|...........
|...........|...........|...........|...........
|...........|...........|...........|...........
|...........|...........|...........|...........
|...........|...........|...........|...........
|...........|...........|...........|...........
|...........|...........|...........|...........
|...........|...........|...........|...........
|...........|...........|...........|...........
|...........|...........|...........|...........
|...........|...........|...........|...........
|...........|...........|F-401v64...|...........
|...........|...........|...........|...........
|...........|...........|...........|...........
|...........|...........|...........|...........
|...........|...........|...........|...........
|...........|...........|...........|...........
|...........|...........|...........|...........
|...........|...........|...........|...........
|...........|...........|...........|...........
|...........|...........|...........|...........
|...........|...........|...........|...........
|...........|...........|...........|...........
|...........|...........|...........|...........
|A-501v64...|...........|...........|...........
|...........|...........|...........|...........
|...........|...........|...........|...........
|...........|...........|...........|...........
|...........|...........|...........|...........
|...........|...........|...........|...........
|...........|...........|...........|...........
|...........|...........|...........|...........
|...........|...........|...........|...........
|...........|...........|...........|...........
|...........|...........|...........|...........
|...........|===........|...........|...........
|B-501v64...|...........|F#301v64...|...........
|...........|...........|...........|...........
|...........|...........|...........|...........
|...........|...........|...........|...........
|...........|...........|...........|...........
|...........|...........|...........|...........
|...........|...........|...........|...........
|...........|...........|...........|...........
|...........|...........|...........|...........
|...........|...........|...........|...........
|...........|...........|...........|...........
|...........|...........|...........|...........
|...........|...........|...........|...........
|A-501v64...|...........|...........|...........
|...........|...........|...........|...........
|...........|...........|...........|...........
|...........|...........|...........|...........
|...........|...........|...........|...........
|...........|...........|...........|...........
|...........|...........|...........|...........
|...........|...........|...........|...........
|...........|...........|...........|...........
|...........|...........|...........|...........
|...........|...........|...........|...........
|...........|...........|...........|...........
|...........|...........|...........|...........
|F#501v64...|E-501v64...|D-301v64...|...........
|...........|...........|...........|...........
|...........|...........|...........|...........
|...........|...........|...........|...........
|...........|...........|...........|...........
|...........|...........|...........|...........
|...........|...........|...........|...........
|...........|...........|...........|...........
|...........|...........|...........|...........
|...........|...........|...........|...........
|...........|...........|...........|...........
|...........|...........|...........|...........
|...........|...........|...........|...........
|...........|...........|A-301v64...|...........
|...........|...........|...........|...........
|...........|...........|...........|...........
|...........|...........|...........|...........
|...........|...........|...........|...........
|...........|...........|...........|...........
|...........|...........|...........|...........
|...........|...........|...........|...........
|...........|...........|...........|...........
|...........|...........|...........|...........
|...........|...........|...........|...........
|...........|...........|...........|...........
|...........|...........|...........|...........
|...........|...........|D-401v64...|...........
|...........|...........|...........|...........
|...........|...........|...........|...........
|...........|...........|...........|...........
|...........|...........|...........|...........
|...........|...........|...........|...........
|...........|...........|...........|...........
|...........|...........|...........|...........
|...........|...........|...........|...........
|...........|...........|...........|...........
|...........|...........|...........|...........
|...........|...........|...........|...........
|...........|...........|E-401v64...|...........
|...........|...........|...........|...........
|...........|...........|...........|...........
|...........|...........|...........|...........
|...........|...........|...........|...........
|...........|...........|...........|...........
|...........|...........|...........|...........
|...........|...........|...........|...........
|...........|...........|...........|...........
|...........|...........|...........|...........
|...........|...........|...........|...........
|...........|...........|...........|...........
|===........|===........|...........|...........
ModPlug Tracker  IT
|...........|===........|F#401v64...|D-401v64...
|...........|...........|...........|...........
|...........|...........|...........|...........
|...........|...........|...........|...........
|...........|...........|...........|...........
|...........|...........|...........|...........
|...........|...........|...........|...........
|...........|...........|...........|...........
|...........|...........|...........|...........
|...........|...........|...........|...........
|...........|...........|...........|...........
|...........|...........|...........|...........
|...........|...........|...........|...........
|G#501v64...|...........|...........|...........
|...........|...........|...........|...........
|...........|...........|...........|...........
|...........|...........|...........|...........
|...........|...........|...........|...........
|...........|...........|...........|...........
|...........|...........|...........|...........
|...........|...........|...........|...........
|...........|...........|...........|...........
|...........|...........|...........|...........
|...........|...........|...........|...........
|...........|...........|...........|...........
|...........|...........|...........|...........
|E-501v64...|...........|...........|...........
|...........|...........|...........|...........
|...........|...........|...........|...........
|...........|...........|...........|...........
|...........|...........|...........|...........
|...........|...........|...........|...........
|...........|...........|...........|...........
|...........|...........|...........|...........
|...........|...........|...........|...........
|...........|...........|...........|...........
|...........|...........|...........|...........
|...........|...........|...........|...........
|...........|...........|...........|...........
|D-501v64...|...........|...........|...........
|...........|...........|...........|...........
|...........|...........|...........|...........
|...........|...........|...........|...........
|...........|...........|...........|...........
|...........|...........|...........|...........
|...........|...........|...........|...........
|...........|...........|...........|...........
|...........|...........|...........|...........
|...........|...........|...........|...........
|...........|...........|...........|...........
|...........|...........|===........|===........
|E-501v64...|B-401v64...|C#301v64...|===........
|...........|...........|...........|...........
|...........|...........|...........|...........
|...........|...........|...........|...........
|...........|...........|...........|...........
|...........|...........|...........|...........
|...........|...........|...........|...........
|...........|...........|...........|...........
|...........|...........|...........|...........
|...........|...........|...........|...........
|...........|...........|...........|...........
|...........|...........|...........|...........
|...........|...........|...........|...........
|...........|...........|G#301v64...|...........
|...........|...........|...........|...........
|...........|...........|...........|...........
|...........|...........|...........|...........
|...........|...........|...........|...........
|...........|...........|...........|...........
|...........|...........|...........|...........
|...........|...........|...........|...........
|...........|...........|...........|...........
|...........|...........|...........|...........
|...........|...........|...........|...........
|...........|...........|...........|...........
|...........|...........|...........|...........
|...........|...........|C#401v64...|...........
|...........|...........|...........|...........
|...........|...........|...........|...........
|...........|...........|...........|...........
|...........|...........|...........|...........
|...........|...........|...........|...........
|...........|...........|...........|...........
|...........|...........|...........|...........
|...........|...........|...........|...........
|...........|...........|...........|...........
|...........|...........|...........|...........
|...........|...........|...........|...........
|...........|...........|...........|...........
|...........|...........|D-401v64...|...........
|...........|...........|...........|...........
|...........|...........|...........|...........
|...........|...........|...........|...........
|...........|...........|...........|...........
|...........|...........|...........|...........
|...........|...........|...........|...........
|...........|...........|...........|...........
|...........|...........|...........|...........
|...........|...........|...........|...........
|...........|...........|...........|...........
|===........|===........|...........|...........
|...........|...........|...........|...........
|A#401v64...|===........|F#301v64...|E-401v64...
|...........|...........|...........|...........
|...........|...........|...........|...........
|...........|...........|...........|...........
|...........|...........|...........|...........
|...........|...........|...........|...........
|...........|...........|...........|...........
|...........|...........|...........|...........
|...........|...........|...........|...........
|...........|...........|...........|...........
|...........|...........|...........|...........
|...........|...........|...........|...........
|F#501v64...|...........|...........|...........
|...........|...........|...........|...........
|...........|...........|...........|...........
|...........|...........|...........|...........
|...........|...........|...........|...........
|...........|...........|...........|...........
|...........|...........|...........|...........
|...........|...........|...........|...........
|...........|...........|...........|...........
|...........|...........|...........|...........
|...........|...........|...........|...........
|...........|...........|...........|...........
|...........|...........|...........|...........
ModPlug Tracker  IT
|D-501v64...|...........|...........|...........
|...........|...........|...........|...........
|...........|...........|...........|...........
|...........|...........|...........|...........
|...........|...........|...........|...........
|...........|...........|...........|...........
|...........|...........|...........|...........
|...........|...........|...........|...........
|...........|...........|...........|...........
|...........|...........|...........|...........
|...........|...........|...........|...........
|...........|...........|...........|...........
|...........|...........|...........|...........
|C#501v64...|...........|...........|...........
|...........|...........|...........|...........
|...........|...........|...........|...........
|...........|...........|...........|...........
|...........|...........|...........|...........
|...........|...........|...........|...........
|...........|...........|...........|...........
|...........|...........|...........|...........
|...........|...........|...........|...........
|...........|...........|...........|...........
|...........|...........|...........|...........
|...........|...........|...........|...........
|...........|...........|===........|===........
|D-501v64...|...........|B-301v64...|===........
|...........|...........|...........|...........
|...........|...........|...........|...........
|...........|...........|...........|...........
|...........|...........|...........|...........
|...........|...........|...........|...........
|...........|...........|...........|...........
|...........|...........|...........|...........
|...........|...........|...........|...........
|...........|...........|...........|...........
|...........|...........|...........|...........
|...........|...........|...........|...........
|...........|...........|...........|...........
|...........|E-501v64...|...........|F#401v64...
|...........|...........|...........|...........
|...........|...........|...........|...........
|...........|...........|...........|...........
|...........|...........|...........|...........
|...........|...........|...........|...........
|...........|...........|...........|...........
|...........|...........|...........|...........
|...........|...........|...........|...........
|...........|...........|...........|...........
|...........|...........|...........|...........
|...........|...........|...........|...........
|...........|F#501v64...|...........|B-401v64...
|...........|...........|...........|...........
|...........|...........|...........|...........
|...........|...........|...........|...........
|...........|...........|...........|...........
|...........|...........|...........|...........
|...........|...........|...........|...........
|...........|...........|...........|...........
|...........|...........|...........|...........
|...........|...........|...........|...........
|...........|...........|...........|...........
|...........|...........|...........|...........
|...........|...........|...........|...........
|...........|...........|...........|F#401v64...
|...........|...........|...........|...........
|...........|...........|...........|...........
|...........|...........|...........|...........
|...........|...........|...........|...........
|...........|...........|...........|...........
|...........|...........|...........|...........
|...........|...........|...........|...........
|...........|...........|...........|...........
|...........|...........|...........|...........
|...........|...........|...........|...........
|...........|...........|...........|...........
|===........|...........|===........|...........
|===........|...........|C-401v64...|===........
|...........|...........|...........|...........
|...........|...........|...........|...........
|...........|...........|...........|...........
|...........|...........|...........|...........
|...........|...........|...........|...........
|...........|...........|...........|...........
|...........|...........|...........|...........
|...........|...........|...........|...........
|...........|...........|...........|...........
|...........|...........|...........|...........
|...........|...........|...........|...........
|...........|...........|...........|...........
|G#501v64...|===........|...........|D#401v64...
|...........|...........|...........|...........
|...........|...........|...........|...........
|...........|...........|...........|...........
|...........|...........|...........|...........
|...........|...........|...........|...........
|...........|...........|...........|...........
|...........|...........|...........|...........
|...........|...........|...........|...........
|...........|...........|...........|...........
|...........|...........|...........|...........
|...........|...........|...........|...........
|...........|...........|...........|...........
|A-501v64...|...........|...........|F#401v64...
|...........|...........|...........|...........
|...........|...........|...........|...........
|...........|...........|...........|...........
|...........|...........|...........|...........
|...........|...........|...........|...........
|...........|...........|...........|...........
|...........|...........|...........|...........
|...........|...........|...........|...........
|...........|...........|...........|...........
|...........|...........|...........|...........
|...........|...........|...........|...........
|B-501v64...|...........|...........|A-401v64...
|...........|...........|...........|...........
|...........|...........|...........|...........
|...........|...........|...........|...........
|...........|...........|...........|...........
|...........|...........|...........|...........
|...........|...........|...........|...........
|...........|...........|...........|...........
|...........|...........|...........|...........
|...........|...........|...........|...........
|...........|...........|...........|...........
|...........|...........|...........|...........
|...........|...........|===........|...........
ModPlug Tracker  IT
|F#501v64...|A-501v64...|C#401v64...|===........
|...........|...........|...........|...........
|...........|...........|...........|...........
|...........|...........|...........|...........
|...........|...........|...........|...........
|...........|...........|...........|...........
|...........|...........|...........|...........
|...........|...........|...........|...........
|...........|...........|...........|...........
|...........|...........|...........|...........
|...........|...........|...........|...........
|...........|...........|...........|...........
|...........|...........|...........|...........
|...........|...........|...........|F#401v64...
|...........|...........|...........|...........
|...........|...........|...........|...........
|...........|...........|...........|...........
|...........|...........|...........|...........
|...........|...........|...........|...........
|...........|...........|...........|...........
|...........|...........|...........|...........
|...........|...........|...........|...........
|...........|...........|...........|...........
|...........|...........|...........|...........
|...........|...........|...........|...........
|...........|...........|...........|...........
|...........|...........|...........|G#401v64...
|...........|...........|...........|...........
|...........|...........|...........|...........
|...........|...........|...........|...........
|...........|...........|...........|...........
|...........|...........|...........|...........
|...........|...........|...........|...........
|...........|...........|...........|...........
|...........|...........|...........|...........
|...........|...........|...........|...........
|...........|...........|...........|...........
|...........|...........|...........|...........
|...........|...........|...........|...........
|...........|...........|...........|B-401v64...
|...........|...........|...........|...........
|...........|...........|...........|...........
|...........|...........|...........|...........
|...........|...........|...........|...........
|...........|...........|...........|...........
|...........|...........|...........|...........
|...........|...........|...........|...........
|...........|...........|...........|...........
|...........|...........|...........|...........
|...........|...........|...........|...........
|===........|===........|===........|...........
|G#501v64...|F-501v64...|...........|...........
|...........|...........|...........|...........
|...........|...........|...........|...........
|...........|...........|...........|...........
|...........|...........|...........|...........
|...........|...........|...........|...........
|...........|...........|...........|...........
|...........|...........|...........|...........
|...........|...........|...........|...........
|...........|...........|...........|...........
|...........|...........|...........|...........
|...........|...........|...........|...........
|...........|...........|...........|...........
|...........|...........|...........|...........
|...........|...........|...........|...........
|...........|...........|...........|...........
|...........|...........|...........|...........
|...........|...........|...........|...........
|...........|...........|...........|...........
|...........|...........|...........|...........
|...........|...........|...........|...........
|...........|...........|...........|...........
|...........|...........|...........|...........
|...........|...........|...........|...........
|...........|...........|...........|...........
|...........|...........|...........|...........
|F#501v64...|===........|===........|===........
|...........|...........|...........|...........
|...........|...........|...........|...........
|...........|...........|...........|...........
|...........|...........|...........|...........
|...........|...........|...........|...........
|...........|...........|...........|...........
|...........|...........|...........|...........
|...........|...........|...........|...........
|...........|...........|...........|...........
|...........|...........|...........|...........
|...........|...........|...........|...........
|...........|...........|...........|...........
|C#601v64...|...........|...........|...........
|...........|...........|...........|...........
|...........|...........|...........|...........
|...........|...........|...........|...........
|...........|...........|...........|...........
|...........|...........|...........|...........
|...........|...........|...........|...........
|...........|...........|...........|...........
|...........|...........|...........|...........
|...........|...........|...........|...........
|...........|...........|...........|...........
|...........|...........|...........|...........
|...........|...........|...........|...........
|G#501v64...|C#501v64...|F-301v64...|...........
|...........|...........|...........|...........
|...........|...........|...........|...........
|...........|...........|...........|...........
|...........|...........|...........|...........
|...........|...........|...........|...........
|...........|...........|...........|...........
|...........|...........|...........|...........
|...........|...........|...........|...........
|...........|...........|...........|...........
|...........|...........|...........|...........
|...........|...........|...........|...........
|...........|...........|C#401v64...|...........
|...........|...........|...........|...........
|...........|...........|...........|...........
|...........|...........|...........|...........
|...........|...........|...........|...........
|...........|...........|...........|...........
|...........|...........|...........|...........
|...........|...........|...........|...........
|...........|...........|...........|...........
|...........|...........|...........|...........
|...........|...........|...........|...........
|...........|...........|...........|...........
|...........|...........|...........|...........
ModPlug Tracker  IT
|...........|...........|F-401v64...|...........
|...........|...........|...........|...........
|...........|...........|...........|...........
|...........|...........|...........|...........
|...........|...........|...........|...........
|...........|...........|...........|...........
|...........|...........|...........|...........
|...........|...........|...........|...........
|...........|...........|...........|...........
|...........|...........|...........|...........
|...........|...........|...........|...........
|...........|...........|...........|...........
|...........|...........|...........|...........
|A-501v64...|...........|...........|...........
|...........|...........|...........|...........
|...........|...........|...........|...........
|...........|...........|...........|...........
|...........|...........|...........|...........
|...........|...........|...........|...........
|...........|...........|...........|...........
|...........|...........|...........|...........
|...........|...........|...........|...........
|...........|...........|...........|...........
|...........|...........|...........|...........
|...........|...........|...........|...........
|...........|===........|...........|...........
|A-501v64...|...........|F#301v64...|...........
|...........|...........|...........|...........
|...........|...........|...........|...........
|...........|...........|...........|...........
|...........|...........|...........|...........
|...........|...........|...........|...........
|...........|...........|...........|...........
|...........|...........|...........|...........
|...........|...........|...........|...........
|...........|...........|...........|...........
|...........|...........|...........|...........
|...........|...........|...........|...........
|...........|...........|...........|...........
|...........|...........|C#401v64...|...........
|...........|...........|...........|...........
|...........|...........|...........|...........
|...........|...........|...........|...........
|...........|...........|...........|...........
|...........|...........|...........|...........
|...........|...........|...........|...........
|...........|...........|...........|...........
|...........|...........|...........|...........
|...........|...........|...........|...........
|...........|...........|...........|...........
|...........|...........|...........|...........
|F#501v64...|...........|F#401v64...|...........
|...........|...........|...........|...........
|...........|...........|...........|...........
|...........|...........|...........|...........
|...........|...........|...........|...........
|...........|...........|...........|...........
|...........|...........|...........|...........
|...........|...........|...........|...........
|...........|...........|...........|...........
|...........|...........|...........|...........
|...........|...........|...........|...........
|...........|...........|...........|...........
|...........|...........|...........|...........
|C#601v64...|...........|...........|...........
|...........|...........|...........|...........
|...........|...........|...........|...........
|...........|...........|...........|...........
|...........|...........|...........|...........
|...........|...........|...........|...........
|...........|...........|...........|...........
|...........|...........|...........|...........
|...........|...........|...........|...........
|...........|...........|...........|...........
|...........|...........|...........|...........
|...........|...........|...........|...........
|...........|...........|...........|...........
|G#501v64...|C#501v64...|F-301v64...|...........
|...........|...........|...........|...........
|...........|...........|...........|...........
|...........|...........|...........|...........
|...........|...........|...........|...........
|...........|...........|...........|...........
|...........|...........|...........|...........
|...........|...........|...........|...........
|...........|...........|...........|...........
|...........|...........|...........|...........
|...........|...........|...........|...........
|...........|...........|...........|...........
|...........|...........|...........|...........
|...........|...........|C#401v64...|...........
|...........|...........|...........|...........
|...........|...........|...........|...........
|...........|...........|...........|...........
|...........|...........|...........|...........
|...........|...........|...........|...........
|...........|...........|...........|...........
|...........|...........|...........|...........
|...........|...........|...........|...........
|...........|...........|...........|...........
|...........|...........|...........|...........
|...........|...........|...........|...........
|...........|...........|...........|...........
|...........|...........|F-401v64...|...........
|...........|...........|...........|...........
|...........|...........|...........|...........
|...........|...........|...........|...........
|...........|...........|...........|...........
|...........|...........|...........|...........
|...........|...........|...........|...........
|...........|...........|...........|...........
|...........|...........|...........|...........
|...........|...........|...........|...........
|...........|...........|...........|...........
|...........|...........|...........|...........
|A-501v64...|...........|...........|...........
|...........|...........|...........|...........
|...........|...........|...........|...........
|...........|...........|...........|...........
|...........|...........|...........|...........
|...........|...........|...........|...........
|...........|...........|...........|...........
|...........|...........|...........|...........
|...........|...........|...........|...........
|...........|...........|...........|...........
|...........|...........|...........|...........
|...........|...........|...........|...........
|...........|===........|...........|...........
ModPlug Tracker  IT
|B-501v64...|...........|F#301v64...|...........
|...........|...........|...........|...........
|...........|...........|...........|...........
|...........|...........|...........|...........
|...........|...........|...........|...........
|...........|...........|...........|...........
|...........|...........|...........|...........
|...........|...........|...........|...........
|...........|...........|...........|...........
|...........|...........|...........|...........
|...........|...........|...........|...........
|...........|...........|...........|...........
|...........|...........|...........|...........
|A-501v64...|...........|...........|...........
|...........|...........|...........|...........
|...........|...........|...........|...........
|...........|...........|...........|...........
|...........|...........|...........|...........
|...........|...........|...........|...........
|...........|...........|...........|...........
|...........|...........|...........|...........
|...........|...........|...........|...........
|...........|...........|...........|...........
|...........|...........|...........|...........
|...........|...........|...........|...........
|...........|...........|...........|...........
|F#501v64...|E-501v64...|D-301v64...|...........
|...........|...........|...........|...........
|...........|...........|...........|...........
|...........|...........|...........|...........
|...........|...........|...........|...........
|...........|...........|...........|...........
|...........|...........|...........|...........
|...........|...........|...........|...........
|...........|...........|...........|...........
|...........|...........|...........|...........
|...........|...........|...........|...........
|...........|...........|...........|...........
|...........|...........|...........|...........
|...........|...........|A-301v64...|...........
|...........|...........|...........|...........
|...........|...........|...........|...........
|...........|...........|...........|...........
|...........|...........|...........|...........
|...........|...........|...........|...........
|...........|...........|...........|...........
|...........|...........|...........|...........
|...........|...........|...........|...........
|...........|...........|...........|...........
|...........|...........|...........|...........
|...........|...........|...........|...........
|...........|...........|D-401v64...|...........
|...........|...........|...........|...........
|...........|...........|...........|...........
|...........|...........|...........|...........
|...........|...........|...........|...........
|...........|...........|...........|...........
|...........|...........|...........|...........
|...........|...........|...........|...........
|...........|...........|...........|...........
|...........|...........|...........|...........
|...........|...........|...........|...........
|...........|...........|...........|...........
|...........|...........|...........|...........
|...........|...........|E-401v64...|...........
|...........|...........|...........|...........
|...........|...........|...........|...........
|...........|...........|...........|...........
|...........|...........|...........|...........
|...........|...........|...........|...........
|...........|...........|...........|...........
|...........|...........|...........|...........
|...........|...........|...........|...........
|...........|...........|...........|...........
|...........|...........|...........|...........
|...........|...........|...........|...........
|===........|===........|...........|...........
|...........|===........|D-401v64...|F#401v64...
|...........|...........|...........|...........
|...........|...........|...........|...........
|...........|...........|...........|...........
|...........|...........|...........|...........
|...........|...........|...........|...........
|...........|...........|...........|...........
|...........|...........|...........|...........
|...........|...........|...........|...........
|...........|...........|...........|...........
|...........|...........|...........|...........
|...........|...........|...........|...........
|...........|...........|...........|...........
|G#501v64...|...........|...........|...........
|...........|...........|...........|...........
|...........|...........|...........|...........
|...........|...........|...........|...........
|...........|...........|...........|...........
|...........|...........|...........|...........
|...........|...........|...........|...........
|...........|...........|...........|...........
|...........|...........|...........|...........
|...........|...........|...........|...........
|...........|...........|...........|...........
|...........|...........|...........|...........
|...........|...........|...........|...........
|E-501v64...|...........|...........|...........
|...........|...........|...........|...........
|...........|...........|...........|...........
|...........|...........|...........|...........
|...........|...........|...........|...........
|...........|...........|...........|...........
|...........|...........|...........|...........
|...........|...........|...........|...........
|...........|...........|...........|...........
|...........|...........|...........|...........
|...........|...........|...........|...........
|...........|...........|...........|...........
|D-501v64...|...........|...........|...........
|...........|...........|...........|...........
|...........|...........|...........|...........
|...........|...........|...........|...........
|...........|...........|...........|...........
|...........|...........|...........|...........
|...........|...........|...........|...........
|...........|...........|...........|...........
|...........|...........|...........|...........
|...........|...........|...........|...........
|...........|...........|...........|...........
|...........|...........|...........|...........
|...........|...........|===........|===........
ModPlug Tracker  IT
|E-501v64...|B-401v64...|C#301v64...|===........
|...........|...........|...........|...........
|...........|...........|...........|...........
|...........|...........|...........|...........
|...........|...........|...........|...........
|...........|...........|...........|...........
|...........|...........|...........|...........
|...........|...........|...........|...........
|...........|...........|...........|...........
|...........|...........|...........|...........
|...........|...........|...........|...........
|...........|...........|...........|...........
|...........|...........|...........|...........
|...........|...........|G#301v64...|...........
|...........|...........|...........|...........
|...........|...........|...........|...........
|...........|...........|...........|...........
|...........|...........|...........|...........
|...........|...........|...........|...........
|...........|...........|...........|...........
|...........|...........|...........|...........
|...........|...........|...........|...........
|...........|...........|...........|...........
|...........|...........|...........|...........
|...........|...........|...........|...........
|...........|...........|...........|...........
|...........|...........|C#401v64...|...........
|...........|...........|...........|...........
|...........|...........|...........|...........
|...........|...........|...........|...........
|...........|...........|...........|...........
|...........|...........|...........|...........
|...........|...........|...........|...........
|...........|...........|...........|...........
|...........|...........|...........|...........
|...........|...........|...........|...........
|...........|...........|...........|...........
|...........|...........|...........|...........
|...........|...........|...........|...........
|...........|...........|D-401v64...|...........
|...........|...........|...........|...........
|...........|...........|...........|...........
|...........|...........|...........|...........
|...........|...........|...........|...........
|...........|...........|...........|...........
|...........|...........|...........|...........
|...........|...........|...........|...........
|...........|...........|...........|...........
|...........|...........|...........|...........
|...........|...........|...........|...........
|===........|===........|...........|...........
|A#401v64...|===........|F#301v64...|E-401v64...
|...........|...........|...........|...........
|...........|...........|...........|...........
|...........|...........|...........|...........
|...........|...........|...........|...........
|...........|...........|...........|...........
|...........|...........|...........|...........
|...........|...........|...........|...........
|...........|...........|...........|...........
|...........|...........|...........|...........
|...........|...........|...........|...........
|...........|...........|...........|...........
|...........|...........|...........|...........
|F#501v64...|...........|...........|...........
|...........|...........|...........|...........
|...........|...........|...........|...........
|...........|...........|...........|...........
|...........|...........|...........|...........
|...........|...........|...........|...........
|...........|...........|...........|...........
|...........|...........|...........|...........
|...........|...........|...........|...........
|...........|...........|...........|...........
|...........|...........|...........|...........
|...........|...........|...........|...........
|...........|...........|...........|...........
|D-501v64...|...........|...........|...........
|...........|...........|...........|...........
|...........|...........|...........|...........
|...........|...........|...........|...........
|...........|...........|...........|...........
|...........|...........|...........|...........
|...........|...........|...........|...........
|...........|...........|...........|...........
|...........|...........|...........|...........
|...........|...........|...........|...........
|...........|...........|...........|...........
|...........|...........|...........|...........
|...........|...........|...........|...........
|C#501v64...|...........|...........|...........
|...........|...........|...........|...........
|...........|...........|...........|...........
|...........|...........|...........|...........
|...........|...........|...........|...........
|...........|...........|...........|...........
|...........|...........|...........|...........
|...........|...........|...........|...........
|...........|...........|...........|...........
|...........|...........|...........|...........
|...........|...........|...........|...........
|...........|...........|===........|===........
|...........|...........|...........|...........
|D-501v64...|...........|F#401v64...|B-301v64...
|...........|...........|...........|...........
|...........|...........|...........|...........
|...........|...........|...........|...........
|...........|...........|...........|...........
|...........|...........|...........|...........
|...........|...........|...........|...........
|...........|...........|...........|...........
|...........|...........|...........|...........
|...........|...........|...........|...........
|...........|...........|...........|...........
|...........|...........|...........|...........
|B-501v64...|...........|...........|...........
|...........|...........|...........|...........
|...........|...........|...........|...........
|...........|...........|...........|...........
|...........|...........|...........|...........
|...........|...........|...........|...........
|...........|...........|...........|...........
|...........|...........|...........|...........
|...........|...........|...........|...........
|...........|...........|...........|...........
|...........|...........|...........|...........
|...........|...........|...........|...........
|...........|...........|...........|...........
ModPlug Tracker  IT
|A-501v64...|...........|...........|C-401v64...
|...........|...........|...........|...........
|...........|...........|...........|...........
|...........|...........|...........|...........
|...........|...........|...........|...........
|...........|...........|...........|...........
|...........|...........|...........|...........
|...........|...........|...........|...........
|...........|...........|...........|...........
|...........|...........|...........|...........
|...........|...........|...........|...........
|...........|...........|...........|...........
|...........|...........|...........|...........
|G#501v64...|...........|...........|...........
|...........|...........|...........|...........
|...........|...........|...........|...........
|...........|...........|...........|...........
|...........|...........|...........|...........
|...........|...........|...........|...........
|...........|...........|...........|...........
|...........|...........|...........|...........
|...........|...........|...........|...........
|...........|...........|...........|...........
|...........|...........|...........|...........
|...........|...........|...........|...........
|...........|...........|===........|...........
|F#501v64...|C#501v64...|C#401v64...|===........
|...........|...........|...........|...........
|...........|...........|...........|...........
|...........|...........|...........|...........
|...........|...........|...........|...........
|...........|...........|...........|...........
|...........|...........|...........|...........
|...........|...........|...........|...........
|...........|...........|...........|...........
|...........|...........|...........|...........
|...........|...........|...........|...........
|...........|...........|...........|...........
|...........|...........|...........|...........
|F-501v64...|...........|...........|...........
|...........|...........|...........|...........
|...........|...........|...........|...........
|...........|...........|...........|...........
|...........|...........|...........|...........
|...........|...........|...........|...........
|...........|...........|...........|...........
|...........|...........|...........|...........
|...........|...........|...........|...........
|...........|...........|...........|...........
|...........|...........|...........|...........
|...........|...........|...........|...........
|D#501v64...|B-401v64...|C#301v64...|...........
|...........|...........|...........|...........
|...........|...........|...........|...........
|...........|...........|...........|...........
|...........|...........|...........|...........
|...........|...........|...........|...........
|...........|...........|...........|...........
|...........|...........|...........|...........
|...........|...........|...........|...........
|...........|...........|...........|...........
|...........|...........|...........|...........
|...........|...........|...........|...........
|...........|...........|...........|...........
|F-501v64...|...........|...........|...........
|...........|...........|...........|...........
|...........|...........|...........|...........
|...........|...........|...........|...........
|...........|...........|...........|...........
|...........|...........|...........|...........
|...........|...........|...........|...........
|...........|...........|...........|...........
|...........|...........|...........|...........
|...........|...........|...........|...........
|...........|...........|...........|...........
|...........|...........|...........|...........
|...........|...........|...........|...........
|F#501v64...|A#401v64...|F#301v64...|...........
|...........|...........|...........|...........
|...........|...........|...........|...........
|...........|...........|...........|...........
|...........|...........|...........|...........
|...........|...........|...........|...........
|...........|...........|...........|...........
|...........|...........|...........|...........
|...........|...........|...........|...........
|...........|...........|...........|...........
|...........|...........|...........|...........
|...........|...........|...........|...........
|...........|...........|...........|...........
|A#501v64...|===........|F#301v64...|...........
|...........|...........|...........|...........
|...........|...........|...........|...........
|...........|...........|...........|...........
|...........|...........|...........|...........
|...........|...........|...........|...........
|...........|...........|...........|...........
|...........|...........|...........|...........
|...........|...........|...........|...........
|...........|...........|...........|...........
|...........|...........|...........|...........
|...........|...........|...........|...........
|...........|...........|...........|...........
|B-501v64...|...........|G#301v64...|...........
|...........|...........|...........|...........
|...........|...........|...........|...........
|...........|...........|...........|...........
|...........|...........|...........|...........
|...........|...........|...........|...........
|...........|...........|...........|...........
|...........|...........|...........|...........
|...........|...........|...........|...........
|...........|...........|...........|...........
|...........|...........|...........|...........
|...........|...........|...........|...........
|C#601v64...|...........|A#301v64...|...........
|...........|...........|...........|...........
|...........|...........|...........|...........
|...........|...........|...........|...........
|...........|...........|...........|...........
|...........|...........|...........|...........
|...........|...........|...........|...........
|...........|...........|...........|...........
|...........|...........|...........|...........
|...........|...........|...........|...........
|...........|...........|...........|...........
|...........|...........|...........|...........
|...........|...........|...........|...........
ModPlug Tracker  IT
|B-501v64...|D-601v64...|B-301v64...|...........
|...........|...........|...........|...........
|...........|...........|...........|...........
|...........|...........|...........|...........
|...........|...........|...........|...........
|...........|...........|...........|...........
|...........|...........|...........|...........
|...........|...........|...........|...........
|...........|...........|...........|...........
|...........|...........|...........|...........
|...........|...........|...........|...........
|...........|...........|...........|...........
|...........|...........|...........|...........
|A-501v64...|===........|...........|...........
|...........|...........|...........|...........
|...........|...........|...........|...........
|...........|...........|...........|...........
|...........|...........|...........|...........
|...........|...........|...........|...........
|...........|...........|...........|...........
|...........|...........|...........|...........
|...........|...........|...........|...........
|...........|...........|...........|...........
|...........|...........|...........|...........
|...........|...........|...........|...........
|...........|...........|...........|...........
|G#501v64...|E-501v64...|E-301v64...|...........
|...........|...........|...........|...........
|...........|...........|...........|...........
|...........|...........|...........|...........
|...........|...........|...........|...........
|...........|...........|...........|...........
|...........|...........|...........|...........
|...........|...........|...........|...........
|...........|...........|...........|...........
|...........|...........|...........|...........
|...........|...........|...........|...........
|...........|...........|...........|...........
|...........|...........|...........|...........
|B-501v64...|D-601v64...|...........|...........
|...........|...........|...........|...........
|...........|...........|...........|...........
|...........|...........|...........|...........
|...........|...........|...........|...........
|...........|...........|...........|...........
|...........|...........|...........|...........
|...........|...........|...........|...........
|...........|...........|...........|...........
|...........|...........|...........|...........
|...........|...........|...........|...........
|...........|...........|...........|...........
|C#601v64...|G#501v64...|A-301v64...|...........
|...........|...........|...........|...........
|...........|...........|...........|...........
|...........|...........|...........|...........
|...........|...........|...........|...........
|...........|...........|...........|...........
|...........|...........|...........|...........
|...........|...........|...........|...........
|...........|...........|...........|...........
|...........|...........|...........|...........
|...........|...........|...........|...........
|...........|...........|...........|...........
|...........|...........|...........|...........
|E-601v64...|...........|...........|...........
|...........|...........|...........|...........
|...........|...........|...........|...........
|...........|...........|...........|...........
|...........|...........|...........|...........
|...........|...........|...........|...........
|...........|...........|...........|...........
|...........|...........|...........|...........
|...........|...........|...........|...........
|...........|...........|...........|...........
|...........|...........|...........|...........
|...........|...........|...........|...........
|...........|...........|...........|...........
|A-501v64...|F#501v64...|D-301v64...|...........
|...........|...........|...........|...........
|...........|...........|...........|...........
|...........|...........|...........|...........
|...........|...........|...........|...........
|...........|...........|...........|...........
|...........|...........|...........|...........
|...........|...........|...........|...........
|...........|...........|...........|...........
|...........|...........|...........|...........
|...........|...........|...........|...........
|...........|...........|...........|...........
|...........|...........|...........|...........
|C#601v64...|...........|...........|...........
|...........|...........|...........|...........
|...........|...........|...........|...........
|...........|...........|...........|...........
|...........|...........|...........|...........
|...........|...........|...........|...........
|...........|...........|...........|...........
|...........|...........|...........|...........
|...........|...........|...........|...........
|...........|...........|...........|...........
|...........|...........|...........|...........
|...........|...........|...........|...........
|...........|...........|...........|...........
|C-601v64...|F#501v64...|D#301v64...|...........
|...........|...........|...........|...........
|...........|...........|...........|...........
|...........|...........|...........|...........
|...........|...........|F#301v64...|...........
|...........|...........|...........|...........
|...........|...........|...........|...........
|...........|...........|...........|...........
|...........|...........|A-301v64...|...........
|...........|...........|...........|...........
|...........|...........|...........|...........
|...........|...........|...........|...........
|A-501v64...|...........|F#301v64...|...........
|...........|...........|...........|...........
|...........|...........|...........|...........
|...........|...........|...........|...........
|...........|...........|...........|...........
|...........|...........|A-301v64...|...........
|...........|...........|...........|...........
|...........|...........|...........|...........
|...........|...........|...........|...........
|...........|...........|C-401v64...|...........
|...........|...........|...........|...........
|...........|...........|...........|...........
|...........|...........|...........|...........
ModPlug Tracker  IT
|G#501v64...|C-501v64...|A-301v64...|...........
|...........|...........|...........|...........
|...........|...........|...........|...........
|...........|...........|...........|...........
|...........|...........|===........|...........
|...........|...........|C-401v64...|...........
|...........|...........|...........|...........
|...........|...........|...........|...........
|...........|...........|...........|...........
|...........|...........|D#401v64...|...........
|...........|...........|...........|...........
|...........|...........|...........|...........
|...........|...........|...........|...........
|F#501v64...|...........|C-401v64...|...........
|...........|...........|...........|...........
|...........|...........|...........|...........
|...........|...........|...........|...........
|...........|...........|D#401v64...|...........
|...........|...........|...........|...........
|...........|...........|...........|...........
|...........|...........|...........|...........
|...........|...........|...........|...........
|...........|...........|F#401v64...|...........
|...........|...........|...........|...........
|...........|...........|...........|...........
|...........|...........|...........|...........
|A-501v64...|D#501v64...|C#401v64...|...........
|...........|...........|...........|...........
|...........|...........|...........|...........
|...........|...........|...........|...........
|...........|...........|...........|...........
|...........|...........|...........|...........
|...........|...........|...........|...........
|...........|...........|...........|...........
|...........|...........|...........|...........
|...........|...........|...........|...........
|...........|...........|...........|...........
|...........|...........|...........|...........
|...........|...........|...........|...........
|A-501v64...|...........|...........|F#401v64...
|...........|...........|...........|...........
|...........|...........|...........|...........
|...........|...........|...........|...........
|...........|...........|...........|...........
|...........|...........|...........|...........
|...........|...........|...........|...........
|...........|...........|...........|...........
|...........|...........|...........|...........
|...........|...........|...........|...........
|...........|...........|...........|...........
|...........|...........|...........|...........
|...........|...........|...........|G#401v64...
|...........|...........|...........|...........
|...........|...........|...........|...........
|...........|...........|...........|...........
|...........|...........|...........|...........
|...........|...........|...........|...........
|...........|...........|...........|...........
|...........|...........|...........|...........
|...........|...........|...........|...........
|...........|...........|...........|...........
|...........|...........|...........|...........
|...........|...........|...........|...........
|...........|...........|...........|...........
|B-501v64...|...........|...........|B-401v64...
|...........|...........|...........|...........
|...........|...........|...........|...........
|...........|...........|...........|...........
|...........|...........|...........|...........
|...........|...........|...........|...........
|...........|...........|...........|...........
|...........|...........|...........|...........
|...........|...........|...........|...........
|...........|...........|...........|...........
|...........|...........|...........|...........
|...........|...........|...........|...........
|...........|===........|===........|...........
|G#501v64...|F-501v64...|...........|...........
|...........|...........|...........|...........
|...........|...........|...........|...........
|...........|...........|...........|...........
|...........|...........|...........|...........
|...........|...........|...........|...........
|...........|...........|...........|...........
|...........|...........|...........|...........
|...........|...........|...........|...........
|...........|...........|...........|...........
|...........|...........|...........|...........
|...........|...........|...........|...........
|...........|...........|...........|...........
|...........|...........|...........|...........
|...........|...........|...........|...........
|...........|...........|...........|...........
|...........|...........|...........|...........
|...........|...........|...........|...........
|...........|...........|...........|...........
|...........|...........|...........|...........
|...........|...........|...........|...........
|...........|...........|...........|...........
|...........|...........|...........|...........
|...........|...........|...........|...........
|...........|...........|...........|...........
|...........|...........|...........|...........
|===........|===........|===........|===........
|...........|...........|...........|...........
|...........|...........|...........|...........
|...........|...........|...........|...........
|...........|...........|...........|...........
|...........|...........|...........|...........
|...........|...........|...........|...........
|...........|...........|...........|...........
|...........|...........|...........|...........
|...........|...........|...........|...........
|...........|...........|...........|...........
|...........|...........|...........|...........
|...........|...........|...........|...........
|...........|...........|...........|...........
|...........|...........|...........|...........
|...........|...........|...........|...........
|...........|...........|...........|...........
|...........|...........|...........|...........
|...........|...........|...........|...........
|...........|...........|...........|...........
|...........|...........|...........|...........
|...........|...........|...........|...........
|...........|...........|...........|...........
|...........|...........|...........|...........
|...........|...........|...........|...........
ModPlug Tracker  IT
|F#501v64...|...........|...........|...........
|...........|...........|...........|...........
|...........|...........|...........|...........
|...........|...........|...........|...........
|...........|...........|...........|...........
|...........|...........|...........|...........
|...........|...........|...........|...........
|...........|...........|...........|...........
|...........|...........|...........|...........
|...........|...........|...........|...........
|...........|...........|...........|...........
|...........|...........|...........|...........
|...........|...........|...........|...........
|C#601v64...|...........|...........|...........
|...........|...........|...........|...........
|...........|...........|...........|...........
|...........|...........|...........|...........
|...........|...........|...........|...........
|...........|...........|...........|...........
|...........|...........|...........|...........
|...........|...........|...........|...........
|...........|...........|...........|...........
|...........|...........|...........|...........
|...........|...........|...........|...........
|...........|...........|...........|...........
|...........|...........|...........|...........
|G#501v64...|C#501v64...|F-301v64...|...........
|...........|...........|...........|...........
|...........|...........|...........|...........
|...........|...........|...........|...........
|...........|...........|...........|...........
|...........|...........|...........|...........
|...........|...........|...........|...........
|...........|...........|...........|...........
|...........|...........|...........|...........
|...........|...........|...........|...........
|...........|...........|...........|...........
|...........|...........|...........|...........
|...........|...........|...........|...........
|...........|...........|C#401v64...|...........
|...........|...........|...........|...........
|...........|...........|...........|...........
|...........|...........|...........|...........
|...........|...........|...........|...........
|...........|...........|...........|...........
|...........|...........|...........|...........
|...........|...........|...........|...........
|...........|...........|...........|...........
|...........|...........|...........|...........
|...........|...........|...........|...........
|...........|...........|...........|...........
|...........|...........|F-401v64...|...........
|...........|...........|...........|...........
|...........|...........|...........|...........
|...........|...........|...........|...........
|...........|...........|...........|...........
|...........|...........|...........|...........
|...........|...........|...........|...........
|...........|...........|...........|...........
|...........|...........|...........|...........
|...........|...........|...........|...........
|...........|...........|...........|...........
|...........|...........|...........|...........
|...........|...........|...........|...........
|A-501v64...|...........|...........|...........
|...........|...........|...........|...........
|...........|...........|...........|...........
|...........|...........|...........|...........
|...........|...........|...........|...........
|...........|...........|...........|...........
|...........|...........|...........|...........
|...........|...........|...........|...........
|...........|...........|...........|...........
|...........|...........|...........|...........
|...........|...........|...........|...........
|...........|...........|...........|...........
|...........|===........|...........|...........
|A-501v64...|...........|F#301v64...|...........
|...........|...........|...........|...........
|...........|...........|...........|...........
|...........|...........|...........|...........
|...........|...........|...........|...........
|...........|...........|...........|...........
|...........|...........|...........|...........
|...........|...........|...........|...........
|...........|...........|...........|...........
|...........|...........|...........|...........
|...........|...........|...........|...........
|...........|...........|...........|...........
|...........|...........|...........|...........
|...........|...........|C#401v64...|...........
|...........|...........|...........|...........
|...........|...........|...........|...........
|...........|...........|...........|...........
|...........|...........|...........|...........
|...........|...........|...........|...........
|...........|...........|...........|...........
|...........|...........|...........|...........
|...........|...........|...........|...........
|...........|...........|...........|...........
|...........|...........|...........|...........
|...........|...........|...........|...........
|...........|...........|...........|...........
|F#501v64...|...........|F#401v64...|...........
|...........|...........|...........|...........
|...........|...........|...........|...........
|...........|...........|...........|...........
|...........|...........|...........|...........
|...........|...........|...........|...........
|...........|...........|...........|...........
|...........|...........|...........|...........
|...........|...........|...........|...........
|...........|...........|...........|...........
|...........|...........|...........|...........
|...........|...........|...........|...........
|C#601v64...|...........|...........|...........
|...........|...........|...........|...........
|...........|...........|...........|...........
|...........|...........|...........|...........
|...........|...........|...........|...........
|...........|...........|...........|...........
|...........|...........|...........|...........
|...........|...........|...........|...........
|...........|...........|...........|...........
|...........|...........|...........|...........
|...........|...........|...........|...........
|...........|...........|...........|...........
|...........|...........|...........|...........
ModPlug Tracker  IT
|G#501v64...|C#501v64...|F-301v64...|...........
|...........|...........|...........|...........
|...........|...........|...........|...........
|...........|...........|...........|...........
|...........|...........|...........|...........
|...........|...........|...........|...........
|...........|...........|...........|...........
|...........|...........|...........|...........
|...........|...........|...........|...........
|...........|...........|...........|...........
|...........|...........|...........|...........
|...........|...........|...........|...........
|...........|...........|...........|...........
|...........|...........|C#401v64...|...........
|...........|...........|...........|...........
|...........|...........|...........|...........
|...........|...........|...........|...........
|...........|...........|...........|...........
|...........|...........|...........|...........
|...........|...........|...........|...........
|...........|...........|...........|...........
|...........|...........|...........|...........
|...........|...........|...........|...........
|...........|...........|...........|...........
|...........|...........|...........|...........
|...........|...........|...........|...........
|...........|...........|F-401v64...|...........
|...........|...........|...........|...........
|...........|...........|...........|...........
|...........|...........|...........|...........
|...........|...........|...........|...........
|...........|...........|...........|...........
|...........|...........|...........|...........
|...........|...........|...........|...........
|...........|...........|...........|...........
|...........|...........|...........|...........
|...........|...........|...........|...........
|...........|...........|...........|...........
|...........|...........|...........|...........
|A-501v64...|...........|...........|...........
|...........|...........|...........|...........
|...........|...........|...........|...........
|...........|...........|...........|...........
|...........|...........|...........|...........
|...........|...........|...........|...........
|...........|...........|...........|...........
|...........|...........|...........|...........
|...........|...........|...........|...........
|...........|...........|...........|...........
|...........|...........|...........|...........
|...........|===........|...........|...........
|B-501v64...|...........|F#301v64...|...........
|...........|...........|...........|...........
|...........|...........|...........|...........
|...........|...........|...........|...........
|...........|...........|...........|...........
|...........|...........|...........|...........
|...........|...........|...........|...........
|...........|...........|...........|...........
|...........|...........|...........|...........
|...........|...........|...........|...........
|...........|...........|...........|...........
|...........|...........|...........|...........
|...........|...........|...........|...........
|A-501v64...|...........|...........|...........
|...........|...........|...........|...........
|...........|...........|...........|...........
|...........|...........|...........|...........
|...........|...........|...........|...........
|...........|...........|...........|...........
|...........|...........|...........|...........
|...........|...........|...........|...........
|...........|...........|...........|...........
|...........|...........|...........|...........
|...........|...........|...........|...........
|...........|...........|...........|...........
|...........|...........|...........|...........
|E-501v64...|F#501v64...|D-301v64...|...........
|...........|...........|...........|...........
|...........|...........|...........|...........
|...........|...........|...........|...........
|...........|...........|...........|...........
|...........|...........|...........|...........
|...........|...........|...........|...........
|...........|...........|...........|...........
|...........|...........|...........|...........
|...........|...........|...........|...........
|...........|...........|...........|...........
|...........|...........|...........|...........
|...........|...........|...........|...........
|...........|...........|A-301v64...|...........
|...........|...........|...........|...........
|...........|...........|...........|...........
|...........|...........|...........|...........
|...........|...........|...........|...........
|...........|...........|...........|...........
|...........|...........|...........|...........
|...........|...........|...........|...........
|...........|...........|...........|...........
|...........|...........|...........|...........
|...........|...........|...........|...........
|...........|...........|...........|...........
|...........|...........|...........|...........
|...........|...........|D-401v64...|...........
|...........|...........|...........|...........
|...........|...........|...........|...........
|...........|...........|...........|...........
|...........|...........|...........|...........
|...........|...........|...........|...........
|...........|...........|...........|...........
|...........|...........|...........|...........
|...........|...........|...........|...........
|...........|...........|...........|...........
|...........|...........|...........|...........
|...........|...........|...........|...........
|...........|...........|E-401v64...|...........
|...........|...........|...........|...........
|...........|...........|...........|...........
|...........|...........|...........|...........
|...........|...........|...........|...........
|...........|...........|...........|...........
|...........|...........|...........|...........
|...........|...........|...........|...........
|...........|...........|...........|...........
|...........|...........|...........|...........
|...........|...........|...........|...........
|...........|...........|...........|...........
|===........|===........|...........|...........
ModPlug Tracker  IT
|===........|...........|F#401v64...|D-401v64...
|...........|...........|...........|...........
|...........|...........|...........|...........
|...........|...........|...........|...........
|...........|...........|...........|...........
|...........|...........|...........|...........
|...........|...........|...........|...........
|...........|...........|...........|...........
|...........|...........|...........|...........
|...........|...........|...........|...........
|...........|...........|...........|...........
|...........|...........|...........|...........
|...........|...........|...........|...........
|G#501v64...|===........|...........|...........
|...........|...........|...........|...........
|...........|...........|...........|...........
|...........|...........|...........|...........
|...........|...........|...........|...........
|...........|...........|...........|...........
|...........|...........|...........|...........
|...........|...........|...........|...........
|...........|...........|...........|...........
|...........|...........|...........|...........
|...........|...........|...........|...........
|...........|...........|...........|...........
|...........|...........|...........|...........
|E-501v64...|...........|...........|...........
|...........|...........|...........|...........
|...........|...........|...........|...........
|...........|...........|...........|...........
|...........|...........|...........|...........
|...........|...........|...........|...........
|...........|...........|...........|...........
|...........|...........|...........|...........
|...........|...........|...........|...........
|...........|...........|...........|...........
|...........|...........|...........|...........
|...........|...........|...........|...........
|...........|...........|...........|...........
|D-501v64...|...........|...........|...........
|...........|...........|...........|...........
|...........|...........|...........|...........
|...........|...........|...........|...........
|...........|...........|...........|...........
|...........|...........|...........|...........
|...........|...........|...........|...........
|...........|...........|...........|...........
|...........|...........|...........|...........
|...........|...........|...........|...........
|...........|...........|...........|...........
|...........|...........|===........|===........
|E-501v64...|B-401v64...|C#301v64...|===........
|...........|...........|...........|...........
|...........|...........|...........|...........
|...........|...........|...........|...........
|...........|...........|...........|...........
|...........|...........|...........|...........
|...........|...........|...........|...........
|...........|...........|...........|...........
|...........|...........|...........|...........
|...........|...........|...........|...........
|...........|...........|...........|...........
|...........|...........|...........|...........
|...........|...........|...........|...........
|...........|...........|G#301v64...|...........
|...........|...........|...........|...........
|...........|...........|...........|...........
|...........|...........|...........|...........
|...........|...........|...........|...........
|...........|...........|...........|...........
|...........|...........|...........|...........
|...........|...........|...........|...........
|...........|...........|...........|...........
|...........|...........|...........|...........
|...........|...........|...........|...........
|...........|...........|...........|...........
|...........|...........|...........|...........
|...........|...........|C#401v64...|...........
|...........|...........|...........|...........
|...........|...........|...........|...........
|...........|...........|...........|...........
|...........|...........|...........|...........
|...........|...........|...........|...........
|...........|...........|...........|...........
|...........|...........|...........|...........
|...........|...........|...........|...........
|...........|...........|...........|...........
|...........|...........|...........|...........
|...........|...........|...........|...........
|...........|...........|...........|...........
|...........|...........|D-401v64...|...........
|...........|...........|...........|...........
|...........|...........|...........|...........
|...........|...........|...........|...........
|...........|...........|...........|...........
|...........|...........|...........|...........
|...........|...........|...........|...........
|...........|...........|...........|...........
|...........|...........|...........|...........
|...........|...........|...........|...........
|...........|...........|...........|...........
|===........|===........|...........|...........
|...........|...........|...........|...........
|A#401v64...|===........|F#301v64...|E-401v64...
|...........|...........|...........|...........
|...........|...........|...........|...........
|...........|...........|...........|...........
|...........|...........|...........|...........
|...........|...........|...........|...........
|...........|...........|...........|...........
|...........|...........|...........|...........
|...........|...........|...........|...........
|...........|...........|...........|...........
|...........|...........|...........|...........
|...........|...........|...........|...........
|F#501v64...|...........|...........|...........
|...........|...........|...........|...........
|...........|...........|...........|...........
|...........|...........|...........|...........
|...........|...........|...........|...........
|...........|...........|...........|...........
|...........|...........|...........|...........
|...........|...........|...........|...........
|...........|...........|...........|...........
|...........|...........|...........|...........
|...........|...........|...........|...........
|...........|...........|...........|...........
|...........|...........|...........|...........
ModPlug Tracker  IT
|D-501v64...|...........|...........|...........
|...........|...........|...........|...........
|...........|...........|...........|...........
|...........|...........|...........|...........
|...........|...........|...........|...........
|...........|...........|...........|...........
|...........|...........|...........|...........
|...........|...........|...........|...........
|...........|...........|...........|...........
|...........|...........|...........|...........
|...........|...........|...........|...........
|...........|...........|...........|...........
|...........|...........|...........|...........
|C#501v64...|...........|...........|...........
|...........|...........|...........|...........
|...........|...........|...........|...........
|...........|...........|...........|...........
|...........|...........|...........|...........
|...........|...........|...........|...........
|...........|...........|...........|...........
|...........|...........|...........|...........
|...........|...........|...........|...........
|...........|...........|...........|...........
|...........|...........|...........|...........
|...........|...........|...........|...........
|...........|...........|===........|===........
|D-501v64...|...........|B-301v64...|F#401v64...
|...........|...........|...........|...........
|...........|...........|...........|...........
|...........|...........|...........|...........
|...........|...........|...........|...........
|...........|...........|...........|...........
|...........|...........|...........|...........
|...........|...........|...........|...........
|...........|...........|...........|...........
|...........|...........|...........|...........
|...........|...........|...........|...........
|...........|...........|...........|...........
|...........|...........|...........|...........
|B-501v64...|...........|...........|...........
|...........|...........|...........|...........
|...........|...........|...........|...........
|...........|...........|...........|...........
|...........|...........|...........|...........
|...........|...........|...........|...........
|...........|...........|...........|...........
|...........|...........|...........|...........
|...........|...........|...........|...........
|...........|...........|...........|...........
|...........|...........|...........|...........
|...........|...........|...........|...........
|A-501v64...|...........|C-401v64...|...........
|...........|...........|...........|...........
|...........|...........|...........|...........
|...........|...........|...........|...........
|...........|...........|...........|...........
|...........|...........|...........|...........
|...........|...........|...........|...........
|...........|...........|...........|...........
|...........|...........|...........|...........
|...........|...........|...........|...........
|...........|...........|...........|...........
|...........|...........|...........|...........
|...........|...........|...........|...........
|G#501v64...|...........|...........|...........
|...........|...........|...........|...........
|...........|...........|...........|...........
|...........|...........|...........|...........
|...........|...........|...........|...........
|...........|...........|...........|...........
|...........|...........|...........|...........
|...........|...........|...........|...........
|...........|...........|...........|...........
|...........|...........|...........|...........
|...........|...........|...........|...........
|...........|...........|...........|...........
|...........|...........|...........|===........
|F#501v64...|C#501v64...|C#401v64...|===........
|...........|...........|...........|...........
|...........|...........|...........|...........
|...........|...........|...........|...........
|...........|...........|...........|...........
|...........|...........|...........|...........
|...........|...........|...........|...........
|...........|...........|...........|...........
|...........|...........|...........|...........
|...........|...........|...........|...........
|...........|...........|...........|...........
|...........|...........|...........|...........
|...........|...........|...........|...........
|F-501v64...|...........|...........|...........
|...........|...........|...........|...........
|...........|...........|...........|...........
|...........|...........|...........|...........
|...........|...........|...........|...........
|...........|...........|...........|...........
|...........|...........|...........|...........
|...........|...........|...........|...........
|...........|...........|...........|...........
|...........|...........|...........|...........
|...........|...........|...........|...........
|...........|...........|...........|...........
|...........|...........|...........|...........
|B-401v64...|D#501v64...|C#301v64...|...........
|...........|...........|...........|...........
|...........|...........|...........|...........
|...........|...........|...........|...........
|...........|...........|...........|...........
|...........|...........|...........|...........
|...........|...........|...........|...........
|...........|...........|...........|...........
|...........|...........|...........|...........
|...........|...........|...........|...........
|...........|...........|...........|...........
|...........|...........|...........|...........
|...........|F-501v64...|...........|...........
|...........|...........|...........|...........
|...........|...........|...........|...........
|...........|...........|...........|...........
|...........|...........|...........|...........
|...........|...........|...........|...........
|...........|...........|...........|...........
|...........|...........|...........|...........
|...........|...........|...........|...........
|...........|...........|...........|...........
|...........|...........|...........|...........
|...........|...........|...........|...........
|...........|...........|...........|...........
ModPlug Tracker  IT
|F#501v64...|A-401v64...|F#301v64...|...........
|...........|...........|...........|...........
|...........|...........|...........|...........
|...........|...........|...........|...........
|...........|...........|...........|...........
|...........|...........|...........|...........
|...........|...........|...........|...........
|...........|...........|...........|...........
|...........|...........|...........|...........
|...........|...........|...........|...........
|...........|...........|...........|...........
|...........|...........|...........|...........
|...........|...........|...........|...........
|...........|...........|C#401v64...|...........
|...........|...........|...........|...........
|...........|...........|...........|...........
|...........|...........|...........|...........
|...........|...........|...........|...........
|...........|...........|...........|...........
|...........|...........|...........|...........
|...........|...........|...........|...........
|...........|...........|...........|...........
|...........|...........|...........|...........
|...........|...........|...........|...........
|...........|...........|...........|...........
|...........|...........|...........|...........
|...........|...........|F#401v64...|...........
|...........|...........|...........|...........
|...........|...........|...........|...........
|...........|...........|...........|...........
|...........|...........|...........|...........
|...........|...........|...........|...........
|...........|...........|...........|...........
|...........|...........|...........|...........
|...........|...........|...........|...........
|...........|...........|...........|...........
|...........|...........|...........|...........
|...........|...........|...........|...........
|...........|...........|...........|...........
|...........|A-401v64...|C#401v64...|...........
|...........|...........|...........|...........
|...........|...........|...........|...........
|...........|...........|...........|...........
|...........|...........|...........|...........
|...........|...........|...........|...........
|...........|...........|...........|...........
|...........|...........|...........|...........
|...........|...........|...........|...........
|...........|...........|...........|...........
|...........|...........|...........|...........
|===........|...........|...........|...........
|B-401v64...|===........|D-401v64...|...........
|...........|...........|...........|...........
|...........|...........|...........|...........
|...........|...........|...........|...........
|...........|...........|...........|...........
|...........|...........|...........|...........
|...........|...........|...........|...........
|...........|...........|...........|...........
|...........|...........|...........|...........
|...........|...........|...........|...........
|...........|...........|...........|...........
|...........|...........|...........|...........
|...........|...........|...........|...........
|...........|...........|F#401v64...|...........
|...........|...........|...........|...........
|...........|...........|...........|...........
|...........|...........|...........|...........
|...........|...........|...........|...........
|...........|...........|...........|...........
|...........|...........|...........|...........
|...........|...........|...........|...........
|...........|...........|...........|...........
|...........|...........|...........|...........
|...........|...........|...........|...........
|...........|...........|...........|...........
|...........|...........|...........|...........
|G#401v64...|...........|B-301v64...|...........
|...........|...........|...........|...........
|...........|...........|...........|...........
|...........|...........|...........|...........
|...........|...........|...........|...........
|...........|...........|...........|...........
|...........|...........|...........|...........
|...........|...........|...........|...........
|...........|...........|...........|...........
|...........|...........|...........|...........
|...........|...........|...........|...........
|...........|...........|...........|...........
|...........|...........|...........|...........
|...........|...........|F#401v64...|...........
|...........|...........|...........|...........
|...........|...........|...........|...........
|...........|...........|...........|...........
|...........|...........|...........|...........
|...........|...........|...........|...........
|...........|...........|...........|...........
|...........|...........|...........|...........
|...........|...........|...........|...........
|...........|...........|...........|...........
|...........|...........|...........|...........
|...........|...........|...........|...........
|...........|...........|...........|...........
|A-401v64...|...........|C#401v64...|...........
|...........|...........|...........|...........
|...........|...........|...........|...........
|...........|...........|...........|...........
|...........|...........|...........|...........
|...........|...........|...........|...........
|...........|...........|...........|...........
|...........|...........|...........|...........
|...........|...........|...........|...........
|...........|...........|...........|...........
|...........|...........|...........|...........
|...........|...........|...........|...........
|...........|...........|F#401v64...|...........
|...........|...........|...........|...........
|...........|...........|...........|...........
|...........|...........|...........|...........
|...........|...........|...........|...........
|...........|...........|...........|...........
|...........|...........|...........|...........
|...........|...........|...........|...........
|...........|...........|...........|...........
|...........|...........|...........|...........
|...........|...........|...........|...........
|...........|...........|...........|...........
|...........|...........|...........|...........
ModPlug Tracker  IT
|...........|...........|C#401v64...|...........
|...........|...........|...........|...........
|...........|...........|...........|...........
|...........|...........|...........|...........
|...........|...........|...........|...........
|...........|...........|...........|...........
|...........|...........|...........|...........
|...........|...........|...........|...........
|...........|...........|...........|...........
|...........|...........|...........|...........
|...........|...........|...........|...........
|...........|...........|...........|...........
|...........|...........|...........|...........
|...........|...........|F#301v64...|...........
|...........|...........|...........|...........
|...........|...........|...........|...........
|...........|...........|...........|...........
|...........|...........|...........|...........
|...........|...........|...........|...........
|...........|...........|...........|...........
|...........|...........|...........|...........
|...........|...........|...........|...........
|...........|...........|...........|...........
|...........|...........|...........|...........
|...........|...........|...........|...........
|===........|...........|...........|...........
|...........|...........|F#201v64...|...........
|...........|...........|...........|...........
|...........|...........|...........|...........
|...........|...........|...........|...........
|...........|...........|...........|...........
|...........|...........|...........|...........
|...........|...........|...........|...........
|...........|...........|...........|...........
|...........|...........|...........|...........
|...........|...........|...........|...........
|...........|...........|...........|...........
|...........|...........|...........|...........
|...........|...........|...........|...........
|...........|...........|...........|...........
|...........|...........|...........|...........
|...........|...........|...........|...........
|...........|...........|...........|...........
|...........|...........|...........|...........
|...........|...........|...........|...........
|...........|...........|...........|...........
|...........|...........|...........|...........
|...........|...........|...........|...........
|...........|...........|...........|...........
|...........|...........|...........|...........
|...........|...........|...........|...........
|...........|...........|...........|...........
|...........|...........|...........|...........
|...........|...........|...........|...........
|...........|...........|...........|...........
|...........|...........|...........|...........
|...........|...........|...........|...........
|...........|...........|...........|...........
|...........|...........|...........|...........
|...........|...........|...........|...........
|...........|...........|...........|...........
|...........|...........|...........|...........
|...........|...........|...........|...........
|...........|...........|...........|...........
|...........|...........|...........|...........
|...........|...........|...........|...........
|...........|...........|...........|...........
|...........|...........|...........|...........
|...........|...........|...........|...........
|...........|...........|...........|...........
|...........|...........|...........|...........
|...........|...........|...........|...........
|...........|...........|...........|...........
|...........|...........|...........|...........
|...........|...........|...........|...........
|...........|...........|...........|...........
|...........|...........|===........|...........
|===........|...........|===........|...........
|...........|...........|...........|...........
|...........|...........|...........|...........
|...........|...........|...........|...........
|...........|...........|...........|...........
|...........|...........|...........|...........
|...........|...........|...........|...........
|...........|...........|...........|...........
|...........|...........|...........|...........
|...........|...........|...........|...........
|...........|...........|...........|...........
|...........|...........|...........|...........
|...........|...........|...........|...........
|...........|...........|...........|...........
|...........|...........|...........|...........
|...........|...........|...........|...........
|...........|...........|...........|...........
|...........|...........|...........|...........
|...........|...........|...........|...........
|...........|...........|...........|...........
|...........|...........|...........|...........
|...........|...........|...........|...........
|...........|...........|...........|...........
|...........|...........|...........|...........
|...........|...........|...........|...........
|...........|...........|...........|...........
|...........|...........|...........|...........
|...........|...........|...........|...........
|...........|...........|...........|...........
|...........|...........|...........|...........
|...........|...........|...........|...........
|...........|...........|...........|...........
|...........|...........|...........|...........
|...........|...........|...........|...........
|...........|...........|...........|...........
|...........|...........|...........|...........
|...........|...........|...........|...........
|...........|...........|...........|...........
|...........|...........|...........|...........
|...........|...........|...........|...........
|...........|...........|...........|...........
|...........|...........|...........|...........
|...........|...........|...........|...........
|...........|...........|...........|...........
|...........|...........|...........|...........
|...........|...........|...........|...........
|...........|...........|...........|...........
|...........|...........|...........|...........
|...........|...........|...........|...........
|...........|...........|...........|...........
|...........|...........|...........|...........
